<svg width="21" height="21" viewBox="0 0 21 21" fill="none" xmlns="http://www.w3.org/2000/svg">
<g clip-path="url(#clip0_29_21)">
<path d="M6.15121 0.0733558C5.03384 0.125856 4.27084 0.304356 3.60496 0.565981C2.90438 0.830584 2.27008 1.24509 1.74646 1.78048C1.21336 2.30563 0.801276 2.94078 0.53896 3.64161C0.280835 4.31011 0.10496 5.07486 0.0559604 6.19136C0.00696042 7.30961 -0.00441458 7.66836 0.00083542 10.52C0.00696042 13.3716 0.0192104 13.7286 0.0734604 14.8486C0.126835 15.966 0.30446 16.729 0.566085 17.3957C0.835585 18.0861 1.19609 18.6706 1.78059 19.2534C2.30613 19.7868 2.94193 20.1989 3.64346 20.4609C4.31109 20.719 5.07496 20.8949 6.19234 20.9439C7.31059 20.9929 7.67021 21.0042 10.521 20.999C13.3708 20.9929 13.7305 20.9806 14.8496 20.9272C15.9696 20.8747 16.7282 20.6954 17.3958 20.4346C18.096 20.1697 18.73 19.7552 19.2535 19.2201C19.7867 18.6944 20.1988 18.0586 20.461 17.3572C20.7191 16.6896 20.895 15.9257 20.9431 14.8092C20.9921 13.6892 21.0043 13.3305 20.9982 10.4797C20.993 7.62898 20.9807 7.27111 20.9273 6.15111C20.8748 5.03111 20.6963 4.27161 20.4338 3.60398C20.1689 2.90402 19.7548 2.27013 19.2202 1.74636C18.6952 1.21269 18.0596 0.800526 17.3582 0.538856C16.6897 0.281606 15.9267 0.104856 14.8085 0.0576058C13.6911 0.00773076 13.3315 -0.00539424 10.4798 -0.000144239C7.62821 0.00685576 7.27121 0.0182308 6.15121 0.0733558ZM6.27371 19.0547C5.24996 19.011 4.69434 18.8404 4.32421 18.6977C3.86791 18.5299 3.45479 18.2623 3.11496 17.9146C2.76515 17.577 2.49597 17.1649 2.32746 16.7089C2.18309 16.3387 2.00984 15.7831 1.96259 14.7594C1.91009 13.6534 1.89959 13.3209 1.89259 10.5174C1.88734 7.71386 1.89784 7.38223 1.94596 6.27536C1.98971 5.25248 2.16121 4.69598 2.30296 4.32586C2.49196 3.83498 2.72034 3.48586 3.08609 3.11661C3.42413 2.76692 3.83652 2.49777 4.29271 2.32911C4.66284 2.18473 5.21759 2.01323 6.24134 1.96423C7.34821 1.91173 7.67984 1.90123 10.4833 1.89423C13.286 1.88898 13.6185 1.89948 14.7271 1.94848C15.7491 1.99223 16.3056 2.16198 16.6757 2.30548C17.1657 2.49448 17.5157 2.72111 17.885 3.08861C18.2533 3.45611 18.4808 3.80348 18.6725 4.29436C18.8168 4.66361 18.9892 5.21836 19.0373 6.24298C19.0898 7.34986 19.1021 7.68236 19.1073 10.485C19.1117 13.2876 19.1021 13.6201 19.054 14.727C19.0093 15.7507 18.8396 16.3064 18.697 16.6782C18.508 17.1682 18.2796 17.5182 17.913 17.8857C17.5752 18.2353 17.1631 18.5045 16.7072 18.6732C16.338 18.8176 15.7815 18.99 14.7595 19.039C13.6517 19.0915 13.3201 19.102 10.5157 19.1081C7.71221 19.1142 7.38146 19.102 6.27371 19.0547ZM14.8338 4.88761C14.8342 5.13685 14.9084 5.38039 15.0472 5.58742C15.186 5.79445 15.3831 5.95567 15.6135 6.05069C15.8439 6.14571 16.0973 6.17026 16.3417 6.12124C16.5861 6.07221 16.8104 5.9518 16.9863 5.77526C17.1623 5.59871 17.2819 5.37395 17.3301 5.12941C17.3782 4.88487 17.3528 4.63154 17.257 4.40145C17.1612 4.17136 16.9993 3.97486 16.7918 3.83681C16.5842 3.69875 16.3405 3.62534 16.0912 3.62586C15.7572 3.62655 15.4371 3.75985 15.2013 3.99645C14.9656 4.23305 14.8334 4.55358 14.8338 4.88761ZM5.10909 10.5104C5.11187 11.9402 5.68255 13.3104 6.69559 14.3195C7.70863 15.3286 9.08103 15.894 10.5109 15.8912C11.9408 15.8884 13.311 15.3177 14.3201 14.3047C15.3292 13.2916 15.8945 11.9192 15.8917 10.4894C15.8711 9.07128 15.2926 7.71843 14.2815 6.7239C13.2705 5.72936 11.9083 5.17323 10.49 5.17599C9.07181 5.17876 7.71178 5.74019 6.7046 6.73865C5.69741 7.73712 5.12418 9.09221 5.10909 10.5104ZM6.99996 10.5069C6.99858 9.81462 7.2025 9.13753 7.58593 8.56119C7.96936 7.98485 8.51509 7.53515 9.1541 7.26897C9.79311 7.00278 10.4967 6.93207 11.1759 7.06576C11.8551 7.19945 12.4794 7.53154 12.9699 8.02004C13.4603 8.50855 13.7949 9.13152 13.9313 9.81018C14.0677 10.4888 13.9998 11.1927 13.7362 11.8328C13.4726 12.4729 13.0251 13.0204 12.4503 13.4061C11.8755 13.7918 11.1992 13.9985 10.507 13.9999C10.0473 14.0008 9.59203 13.9112 9.16703 13.7361C8.74204 13.5611 8.35569 13.304 8.03003 12.9797C7.70438 12.6553 7.4458 12.27 7.26906 11.8457C7.09232 11.4214 7.00088 10.9665 6.99996 10.5069Z" fill="#312F3C"/>
</g>
<defs>
<clipPath id="clip0_29_21">
<rect width="21" height="21" fill="white"/>
</clipPath>
</defs>
</svg>
